<?xml version="1.0" encoding="UTF-8"?>
<svg id="LOGO02" xmlns="http://www.w3.org/2000/svg" viewBox="0 0 1547.19 188.33">
  <defs>
    <style>
      .cls-1 {
        fill: #70e61c;
      }

      .cls-1, .cls-2, .cls-3 {
        stroke-width: 0px;
      }

      .cls-2 {
        fill: #9744ff;
      }

      .cls-3 {
        fill: #fff;
      }
    </style>
  </defs>
  <path class="cls-1" d="m84.16,38.44v21.23h-28.83v87.58h-26.51V59.67H0v-21.23h84.16Z"/>
  <path class="cls-2" d="m178.56,100.83c3.82,4.91,5.74,10.52,5.74,16.82,0,9.09-3.18,16.3-9.53,21.62-6.35,5.32-15.22,7.98-26.58,7.98h-50.69V38.44h48.98c11.06,0,19.71,2.53,25.96,7.59,6.25,5.06,9.38,11.93,9.38,20.61,0,6.41-1.68,11.73-5.04,15.97-3.36,4.24-7.83,7.18-13.41,8.83,6.3,1.34,11.37,4.47,15.19,9.38Zm-54.56-18.37h17.36c4.34,0,7.67-.95,10-2.87,2.32-1.91,3.49-4.73,3.49-8.45s-1.16-6.56-3.49-8.53c-2.33-1.96-5.66-2.95-10-2.95h-17.36v22.79Zm29.84,40.38c2.43-2.01,3.64-4.93,3.64-8.76s-1.27-6.82-3.8-8.99c-2.53-2.17-6.02-3.25-10.46-3.25h-19.22v24.03h19.53c4.44,0,7.88-1.01,10.31-3.02Z"/>
  <path class="cls-3" d="m291.55,0l-41.54,176.24h-25.58L265.98,0h25.58Z"/>
  <path class="cls-3" d="m356.18,39.52l8.68,15.81-19.06,6.67,19.06,6.51-9.3,16.43-15.5-13.64,3.88,20.15h-18.13l3.72-20.15-15.34,13.79-9.61-16.74,19.06-6.66-18.91-6.2,8.83-15.97,16.12,13.49-4.03-20.46h18.45l-4.03,20.46,16.12-13.49Z"/>
  <path class="cls-3" d="m433.68,124.77v22.48h-13.48c-9.61,0-17.1-2.35-22.48-7.05-5.37-4.7-8.06-12.37-8.06-23.02v-34.41h-10.54v-22.01h10.54v-21.08h26.5v21.08h17.36v22.01h-17.36v34.72c0,2.58.62,4.44,1.86,5.58,1.24,1.14,3.31,1.71,6.2,1.71h9.46Z"/>
  <path class="cls-3" d="m464.91,143.07c-6.77-3.62-12.09-8.78-15.97-15.5-3.88-6.72-5.81-14.57-5.81-23.56s1.96-16.71,5.89-23.48c3.93-6.77,9.3-11.96,16.12-15.58,6.82-3.62,14.47-5.42,22.94-5.42s16.12,1.81,22.94,5.42c6.82,3.62,12.19,8.81,16.12,15.58,3.93,6.77,5.89,14.6,5.89,23.48s-1.99,16.72-5.97,23.48c-3.98,6.77-9.4,11.96-16.27,15.58-6.87,3.62-14.55,5.42-23.02,5.42s-16.1-1.81-22.86-5.42Zm35.8-23.1c3.56-3.72,5.35-9.04,5.35-15.96s-1.73-12.25-5.19-15.96c-3.46-3.72-7.73-5.58-12.79-5.58s-9.46,1.84-12.87,5.5c-3.41,3.67-5.11,9.02-5.11,16.04s1.68,12.25,5.04,15.96c3.36,3.72,7.57,5.58,12.63,5.58s9.38-1.86,12.94-5.58Z"/>
  <path class="cls-3" d="m584.34,63.24c4.65-2.48,9.97-3.72,15.96-3.72,7.13,0,13.59,1.81,19.38,5.42,5.79,3.62,10.36,8.79,13.72,15.5,3.36,6.72,5.04,14.52,5.04,23.41s-1.68,16.71-5.04,23.48c-3.36,6.77-7.93,11.99-13.72,15.65-5.79,3.67-12.25,5.5-19.38,5.5-6.1,0-11.42-1.22-15.96-3.64-4.55-2.43-8.11-5.66-10.69-9.69v12.09h-26.51V32.55h26.51v40.46c2.48-4.03,6.04-7.29,10.69-9.76Zm21.62,25.03c-3.67-3.77-8.19-5.66-13.56-5.66s-9.74,1.91-13.41,5.74c-3.67,3.82-5.5,9.04-5.5,15.65s1.83,11.83,5.5,15.66c3.67,3.82,8.14,5.74,13.41,5.74s9.76-1.94,13.48-5.81,5.58-9.12,5.58-15.73-1.84-11.8-5.5-15.58Z"/>
  <path class="cls-3" d="m654.32,47.66c-2.94-2.74-4.42-6.12-4.42-10.15s1.47-7.57,4.42-10.31c2.95-2.74,6.74-4.11,11.39-4.11s8.29,1.37,11.24,4.11c2.94,2.74,4.42,6.18,4.42,10.31s-1.47,7.42-4.42,10.15c-2.95,2.74-6.69,4.11-11.24,4.11s-8.45-1.37-11.39-4.11Zm24.57,13.1v86.49h-26.51V60.76h26.51Z"/>
  <path class="cls-3" d="m697.88,80.44c3.36-6.71,7.93-11.88,13.72-15.5,5.79-3.62,12.25-5.42,19.38-5.42,6.1,0,11.44,1.24,16.04,3.72,4.6,2.48,8.14,5.74,10.62,9.76v-12.25h26.5v86.49h-26.5v-12.25c-2.58,4.03-6.18,7.29-10.77,9.77-4.6,2.48-9.95,3.72-16.04,3.72-7.03,0-13.43-1.83-19.22-5.5-5.79-3.67-10.36-8.89-13.72-15.65-3.36-6.77-5.04-14.59-5.04-23.48s1.68-16.69,5.04-23.41Zm54.25,7.91c-3.67-3.82-8.14-5.74-13.41-5.74s-9.74,1.89-13.41,5.66c-3.67,3.77-5.5,8.97-5.5,15.58s1.83,11.86,5.5,15.73c3.67,3.88,8.14,5.81,13.41,5.81s9.74-1.91,13.41-5.74c3.67-3.82,5.5-9.04,5.5-15.66s-1.84-11.83-5.5-15.65Z"/>
  <path class="cls-3" d="m818.39,144.62c-5.89-2.58-10.54-6.12-13.95-10.62-3.41-4.49-5.32-9.53-5.74-15.11h26.2c.31,3,1.71,5.42,4.18,7.29,2.48,1.86,5.53,2.79,9.15,2.79,3.31,0,5.86-.64,7.67-1.94,1.81-1.29,2.71-2.97,2.71-5.04,0-2.48-1.29-4.31-3.88-5.5-2.58-1.19-6.77-2.5-12.55-3.95-6.2-1.45-11.37-2.97-15.5-4.57-4.13-1.6-7.7-4.13-10.7-7.6-3-3.46-4.5-8.14-4.5-14.03,0-4.96,1.37-9.48,4.11-13.56,2.74-4.08,6.77-7.31,12.09-9.69,5.32-2.38,11.65-3.56,18.99-3.56,10.85,0,19.4,2.69,25.65,8.06,6.25,5.37,9.84,12.5,10.77,21.39h-24.49c-.41-3-1.73-5.37-3.95-7.13-2.22-1.76-5.14-2.63-8.76-2.63-3.1,0-5.48.6-7.13,1.78-1.65,1.19-2.48,2.82-2.48,4.88,0,2.48,1.32,4.34,3.95,5.58,2.63,1.24,6.74,2.48,12.32,3.72,6.41,1.65,11.62,3.28,15.66,4.88,4.03,1.6,7.57,4.18,10.62,7.75,3.05,3.57,4.62,8.35,4.73,14.34,0,5.06-1.42,9.59-4.26,13.56-2.84,3.98-6.92,7.11-12.25,9.38-5.32,2.27-11.5,3.41-18.52,3.41-7.54,0-14.26-1.29-20.15-3.88Z"/>
  <path class="cls-3" d="m972.3,63.24c4.65-2.48,9.97-3.72,15.97-3.72,7.13,0,13.59,1.81,19.38,5.42,5.79,3.62,10.36,8.79,13.72,15.5,3.36,6.72,5.04,14.52,5.04,23.41s-1.68,16.71-5.04,23.48c-3.36,6.77-7.93,11.99-13.72,15.65-5.79,3.67-12.25,5.5-19.38,5.5-6.1,0-11.42-1.22-15.97-3.64-4.55-2.43-8.11-5.66-10.69-9.69v12.09h-26.5V32.55h26.5v40.46c2.48-4.03,6.04-7.29,10.69-9.76Zm21.62,25.03c-3.67-3.77-8.19-5.66-13.56-5.66s-9.74,1.91-13.41,5.74c-3.67,3.82-5.5,9.04-5.5,15.65s1.83,11.83,5.5,15.66c3.67,3.82,8.14,5.74,13.41,5.74s9.76-1.94,13.49-5.81c3.72-3.88,5.58-9.12,5.58-15.73s-1.83-11.8-5.5-15.58Z"/>
  <path class="cls-3" d="m1040.11,80.44c3.36-6.71,7.93-11.88,13.72-15.5,5.79-3.62,12.25-5.42,19.38-5.42,6.1,0,11.44,1.24,16.04,3.72,4.6,2.48,8.14,5.74,10.62,9.76v-12.25h26.5v86.49h-26.5v-12.25c-2.58,4.03-6.18,7.29-10.77,9.77-4.6,2.48-9.95,3.72-16.04,3.72-7.03,0-13.43-1.83-19.22-5.5-5.79-3.67-10.36-8.89-13.72-15.65-3.36-6.77-5.04-14.59-5.04-23.48s1.68-16.69,5.04-23.41Zm54.25,7.91c-3.67-3.82-8.14-5.74-13.41-5.74s-9.74,1.89-13.41,5.66c-3.67,3.77-5.5,8.97-5.5,15.58s1.83,11.86,5.5,15.73c3.67,3.88,8.14,5.81,13.41,5.81s9.74-1.91,13.41-5.74c3.67-3.82,5.5-9.04,5.5-15.66s-1.84-11.83-5.5-15.65Z"/>
  <path class="cls-3" d="m1233.94,60.76l-54.25,127.57h-28.52l19.84-44.02-35.19-83.55h29.61l20,54.09,19.84-54.09h28.67Z"/>
  <path class="cls-3" d="m1324.61,110.36h-59.98c.41,5.37,2.14,9.48,5.19,12.32,3.05,2.84,6.79,4.26,11.24,4.26,6.61,0,11.21-2.79,13.79-8.37h28.21c-1.45,5.68-4.06,10.8-7.83,15.34-3.77,4.55-8.5,8.11-14.18,10.7-5.68,2.58-12.04,3.88-19.07,3.88-8.47,0-16.02-1.81-22.63-5.42-6.61-3.62-11.78-8.78-15.5-15.5-3.72-6.72-5.58-14.57-5.58-23.56s1.83-16.84,5.5-23.56c3.67-6.71,8.81-11.88,15.42-15.5,6.61-3.62,14.21-5.42,22.79-5.42s15.81,1.76,22.32,5.27c6.51,3.51,11.6,8.53,15.27,15.04,3.67,6.51,5.5,14.11,5.5,22.79,0,2.48-.15,5.06-.46,7.75Zm-26.66-14.73c0-4.55-1.55-8.16-4.65-10.85-3.1-2.69-6.98-4.03-11.62-4.03s-8.19,1.29-11.24,3.88c-3.05,2.58-4.94,6.25-5.66,11h33.17Z"/>
  <path class="cls-3" d="m1377.15,63.94c4.65-2.74,9.82-4.11,15.5-4.11v28.05h-7.29c-6.61,0-11.57,1.42-14.88,4.26-3.31,2.84-4.96,7.83-4.96,14.96v40.15h-26.5V60.76h26.5v14.42c3.1-4.75,6.97-8.5,11.62-11.24Z"/>
  <path class="cls-3" d="m1458.84,39.52l8.68,15.81-19.06,6.67,19.06,6.51-9.3,16.43-15.5-13.64,3.88,20.15h-18.13l3.72-20.15-15.34,13.79-9.61-16.74,19.07-6.66-18.91-6.2,8.83-15.97,16.12,13.49-4.03-20.46h18.45l-4.03,20.46,16.12-13.49Z"/>
  <path class="cls-3" d="m1547.19,0l-41.54,176.24h-25.58L1521.61,0h25.58Z"/>
</svg>