<?xml version="1.0" encoding="UTF-8"?>
<svg id="Layer_1" data-name="Layer 1" xmlns="http://www.w3.org/2000/svg" viewBox="0 0 1434.47 268.31">
  <defs>
    <style>
      .cls-1 {
        fill: #c41414;
        stroke-width: 0px;
      }
    </style>
  </defs>
  <path class="cls-1" d="M57.72,259.7C37.99,174.7,18.77,89.58,0,4.36c20.23-.05,40.46-.1,60.69-.15,10.23,55.91,20.59,111.8,31.08,167.66,10.29-55.96,20.75-111.9,31.39-167.8,20.23-.04,40.46-.08,60.69-.12-20.08,82.07-39.62,164.27-58.59,246.6-22.53,2.91-45.04,5.96-67.54,9.14Z"/>
  <path class="cls-1" d="M205.6,240.99c.25-79.02.5-158.05.75-237.07,18.65-.03,37.3-.06,55.96-.09-.27,77.11-.54,154.23-.81,231.34-18.64,1.85-37.27,3.8-55.9,5.83Z"/>
  <path class="cls-1" d="M301.74,231.39c.28-75.88.55-151.75.83-227.63,24.87-.04,49.74-.07,74.61-.1,60.23.42,92.5,51.75,92.05,107.69-.45,55.79-31.83,110.37-92.54,113.94-25,1.86-49.98,3.89-74.94,6.09ZM357.92,171.55c7.47-.44,11.2-.65,18.66-1.06,27.64-2.48,35.7-34.46,35.75-57.41.05-23.1-6.28-54.81-35.35-54.58-7.46.14-11.19.21-18.66.36-.14,37.56-.27,75.13-.41,112.69Z"/>
  <path class="cls-1" d="M500.35,217.89c.2-71.45.39-142.9.59-214.35,41.55-.03,83.1-.05,124.65-.07-.02,16.92-.04,33.84-.07,50.76-22.91.12-45.82.28-68.74.47-.02,11.19-.04,16.79-.06,27.99,22.23-.28,44.46-.52,66.69-.7-.02,16.92-.04,33.84-.07,50.77-22.25.3-44.49.67-66.73,1.13-.02,10.18-.04,20.35-.07,30.53,22.94-.58,45.89-1.05,68.83-1.42l-.07,50.76c-41.68.88-83.33,2.26-124.97,4.14Z"/>
  <path class="cls-1" d="M742.25,0c59.27.75,90.09,55.04,90.18,109.03.09,54.1-30.99,107.23-90.1,107.65-59.62.42-90.23-54.9-90.18-108.14.05-53.01,30.34-109.3,90.11-108.53ZM742.27,52.45c-26.38-.25-32.89,34.78-32.9,55.86,0,21.12,6.63,56.03,32.93,55.93,25.99-.1,33.21-34.74,33.19-55.75-.02-21.08-7.18-55.8-33.23-56.05Z"/>
  <path class="cls-1" d="M864.07,215.16c-.14-70.55-.28-141.11-.42-211.66,41.55.02,83.1.05,124.65.09.06,17.47.11,34.95.17,52.42-22.91-.33-45.82-.63-68.72-.89.02,9.4.05,18.8.07,28.2,22.22.38,44.45.82,66.67,1.3.06,17.46.11,34.93.17,52.39-22.23-.78-44.46-1.48-66.7-2.1.07,27.45.14,54.9.21,82.35-18.7-.79-37.39-1.49-56.1-2.1Z"/>
  <path class="cls-1" d="M1023.1,222.89c-.25-73.09-.5-146.18-.75-219.26,18.65.02,37.31.04,55.96.07.2,56,.4,112,.61,168,20.34,1.22,40.68,2.52,61.01,3.9.07,18.82.14,37.65.2,56.47-38.98-3.5-77.98-6.55-117.03-9.17Z"/>
  <path class="cls-1" d="M1172.98,235.16c-.27-77.11-.54-154.23-.81-231.34,18.65.03,37.3.06,55.96.09.25,79.02.5,158.05.75,237.07-18.62-2.03-37.25-3.97-55.9-5.83Z"/>
  <path class="cls-1" d="M1370.86,258.86c-9.26-26.16-18.64-52.27-28.14-78.34-9.11,23.63-18.31,47.23-27.6,70.79-21.25-2.72-42.51-5.32-63.78-7.8,19.06-39.65,37.77-79.46,56.11-119.44-17.48-40.21-35.34-80.24-53.57-120.12,21.32.04,42.63.08,63.95.13,8.32,23.18,16.55,46.39,24.7,69.63,8.12-23.15,16.17-46.32,24.15-69.52,21.41.05,42.83.1,64.24.15-17.25,41.51-34.86,82.87-52.85,124.08,19.33,46.42,38.12,93.05,56.4,139.89-21.19-3.27-42.39-6.42-63.61-9.45Z"/>
</svg>