<?xml version="1.0" encoding="UTF-8"?>
<svg id="Layer_1" data-name="Layer 1" xmlns="http://www.w3.org/2000/svg" viewBox="0 0 200 200">
  <defs>
    <style>
      .cls-1 {
        fill: #70e61c;
      }

      .cls-1, .cls-2 {
        stroke-width: 0px;
      }

      .cls-2 {
        fill: #9744ff;
      }
    </style>
  </defs>
  <path class="cls-1" d="m92.02,45.59v21.24h-28.83v87.57h-26.5v-87.57H7.85v-21.24h84.17Z"/>
  <path class="cls-2" d="m186.41,107.98c3.82,4.91,5.73,10.52,5.73,16.82,0,9.09-3.18,16.3-9.53,21.62-6.35,5.32-15.22,7.98-26.58,7.98h-50.68V45.59h48.98c11.06,0,19.71,2.53,25.96,7.59,6.25,5.06,9.38,11.94,9.38,20.61,0,6.41-1.68,11.73-5.04,15.97-3.36,4.24-7.83,7.18-13.41,8.83,6.3,1.34,11.37,4.47,15.19,9.38Zm-54.56-18.37h17.36c4.34,0,7.67-.95,10-2.87,2.33-1.91,3.49-4.73,3.49-8.45s-1.16-6.56-3.49-8.52c-2.32-1.96-5.66-2.95-10-2.95h-17.36v22.78Zm29.84,40.38c2.43-2.01,3.64-4.93,3.64-8.76s-1.27-6.82-3.8-8.99c-2.53-2.17-6.02-3.26-10.46-3.26h-19.22v24.03h19.53c4.44,0,7.88-1.01,10.31-3.02Z"/>
</svg>