<svg width="66" height="61" viewBox="0 0 66 61" fill="none" xmlns="http://www.w3.org/2000/svg">
<g id="scrum">
<g id="Group">
<path id="Vector" fill-rule="evenodd" clip-rule="evenodd" d="M63.6942 16.471L58.0124 24.4155L52.3306 16.471H55.4285C55.1924 10.5682 50.3163 5.84601 44.3567 5.84601C39.3278 5.84601 35.063 9.22101 33.7155 13.8182C32.0763 13.2905 30.3814 12.9571 28.6588 12.8043C28.8533 12.0682 29.1034 11.3321 29.409 10.6238C30.2286 8.69323 31.3955 6.95712 32.882 5.47101C34.3684 3.9849 36.1049 2.80434 38.0359 1.99879C40.0363 1.13768 42.1618 0.707123 44.3567 0.707123C46.5516 0.707123 48.6771 1.13768 50.6775 1.9849C52.6085 2.80434 54.345 3.97101 55.8314 5.45712C57.3178 6.94323 58.4848 8.67935 59.3044 10.6099C60.0962 12.471 60.5269 14.4432 60.5685 16.471H63.6942Z" fill="white"/>
</g>
<g id="Group_2">
<path id="Vector_2" fill-rule="evenodd" clip-rule="evenodd" d="M55.748 60.707V57.2903H36.1605C36.2994 57.2209 36.4383 57.1653 36.5772 57.0959C38.7027 56.082 40.6614 54.7626 42.4118 53.1515C42.648 52.9292 42.8702 52.7209 43.0786 52.5126C43.3148 52.2765 43.5648 52.0265 43.801 51.7626C44.0788 51.457 44.3567 51.1376 44.6067 50.8181H55.748V47.4015L65.0556 54.0542L55.748 60.707Z" fill="white"/>
</g>
<g id="Group_3">
<path id="Vector_3" fill-rule="evenodd" clip-rule="evenodd" d="M48.5242 36.0266C48.5242 38.9849 47.9408 41.8599 46.8016 44.5682C45.8292 46.8738 44.4678 48.9849 42.773 50.8321C42.5507 51.0682 42.3284 51.3043 42.1062 51.5405C41.8978 51.7488 41.6894 51.9432 41.481 52.1516C39.8418 53.6655 38.008 54.9016 36.0076 55.8599C35.7298 55.9988 35.438 56.1238 35.1463 56.2488C35.1324 56.2488 35.1324 56.2627 35.1185 56.2627C33.4515 56.971 31.6594 57.3182 29.8396 57.3182H0.944458V50.8599H27.7697C35.8826 50.8599 42.5368 44.3738 42.6479 36.2627C42.6479 36.1932 42.6479 36.1238 42.6479 36.0543C42.6479 27.1932 35.4519 19.9988 26.5889 19.9988C17.7259 19.971 10.5299 27.1516 10.5299 36.0266H14.2529L7.59868 45.3321L0.944458 36.0266H4.66749C4.66749 33.0682 5.25095 30.1932 6.39008 27.4849C7.50143 24.8738 9.07122 22.5266 11.0855 20.5127C13.0999 18.4988 15.4476 16.9155 18.0593 15.8182C20.7682 14.6793 23.6438 14.096 26.6028 14.096C27.2001 14.096 27.7836 14.1238 28.3671 14.1655C30.0897 14.3043 31.7706 14.6377 33.4098 15.1793C33.9933 15.3738 34.5629 15.5821 35.1324 15.8321C37.7441 16.9432 40.0918 18.5127 42.1062 20.5266C44.1205 22.5405 45.7042 24.8877 46.8016 27.4988C47.9408 30.1932 48.5242 33.0682 48.5242 36.0266Z" fill="white"/>
</g>
</g>
</svg>
